<svg width="24" height="24" viewBox="0 0 24 24" fill="none" xmlns="http://www.w3.org/2000/svg">
<path d="M10.75 5.50005V7.50005H5.5V18.5H16.5V13.25H18.5V19.5C18.5 20.0523 18.0523 20.5 17.5 20.5H4.5C3.94773 20.5 3.50002 20.0523 3.5 19.5V6.50005L3.50488 6.39751C3.5562 5.89336 3.98231 5.50005 4.5 5.50005H10.75Z" fill="black"/>
<path d="M20.4978 4.50098C20.4977 3.94881 20.05 3.50106 19.4978 3.50098L13.4988 3.5L15.9399 5.94115L10.9399 10.9412L13.0613 13.0625L18.0613 8.06247L20.4988 10.5L20.4978 4.50098Z" fill="black"/>
<path d="M10.75 6.5H4.5V19.5H17.5V13.25" stroke="black" stroke-width="3" stroke-linejoin="round"/>
</svg>
