<svg width="24" height="24" viewBox="0 0 24 24" fill="none" xmlns="http://www.w3.org/2000/svg">
<path d="M7.31055 14.9383L7.96191 15.5906L8.20215 15.8192C9.43064 16.9325 11.0297 17.5575 12.6953 17.5672C14.4718 17.5776 16.1814 16.8868 17.4521 15.6453L19.5479 17.7918C17.7123 19.5849 15.2437 20.5821 12.6777 20.5672C10.2722 20.5531 7.96285 19.6505 6.18848 18.0428L5.84082 17.7117L5.18848 17.0604L3.25 18.9998V13.9998C3.25009 13.4476 3.69777 12.9998 4.25 12.9998H9.25L7.31055 14.9383Z" fill="black"/>
<path d="M11.8018 3.4471C14.1926 3.57877 16.4581 4.58694 18.1592 6.28792L18.8105 6.93928L20.75 4.99983V9.99983C20.75 10.5521 20.3023 10.9998 19.75 10.9998H14.75L16.6885 9.06038L16.0381 8.40901C14.8604 7.23148 13.2919 6.53337 11.6367 6.44221L11.3047 6.43245C9.52817 6.42211 7.81863 7.11285 6.54785 8.35432L4.80078 6.56624L4.45215 6.20784C6.28767 4.41484 8.75636 3.41751 11.3223 3.43245L11.8018 3.4471Z" fill="black"/>
</svg>
